# Exported from ProBuilder
# http://www.procore3d.com/probuilder
# 6/3/2018 12:33:02 PM

mtllib ./Room.mtl
o Room

g Room
v 2 0.01 2.5
v -2 0.01 2.5
v 2 3.01 2.5
v -2 3.01 2.5
v -2 0.01 2.5
v -2 0.01 -2.5
v -2 3.01 2.5
v -2 3.01 -2.5
v -2 0.01 -2.5
v 2 0.01 -2.5
v -2 3.01 -2.5
v 2 3.01 -2.5
v 2 0.01 -2.5
v 2 0.01 2.5
v 2 3.01 -2.5
v 2 3.01 2.5
v 2 3.01 2.5
v -2 3.01 2.5
v 2 3.01 -2.5
v -2 3.01 -2.5
v 2 0.01 -2.5
v -2 0.01 -2.5
v 2 0.01 2.5
v -2 0.01 2.5

vn 0 0 -1
vn 0 0 -1
vn 0 0 -1
vn 0 0 -1
vn 1 0 0
vn 1 0 0
vn 1 0 0
vn 1 0 0
vn 0 0 1
vn 0 0 1
vn 0 0 1
vn 0 0 1
vn -1 0 0
vn -1 0 0
vn -1 0 0
vn -1 0 0
vn 0 -1 0
vn 0 -1 0
vn 0 -1 0
vn 0 -1 0
vn 0 1 0
vn 0 1 0
vn 0 1 0
vn 0 1 0

vt 0 0
vt 4 0
vt 0 3
vt 4 3
vt 0 0
vt 5 0
vt 0 3
vt 5 3
vt -4 0
vt 0 0
vt -4 3
vt 0 3
vt -5 0
vt 0 0
vt -5 3
vt 0 3
vt 0 0
vt -4 0
vt 0 -5
vt -4 -5
vt 0 -5
vt 4 -5
vt 0 0
vt 4 0

g Room
usemtl Default_Prototype
f 1/1/1 2/2/2 4/4/4 3/3/3
f 5/5/5 6/6/6 8/8/8 7/7/7
f 9/9/9 10/10/10 12/12/12 11/11/11
f 13/13/13 14/14/14 16/16/16 15/15/15
f 17/17/17 18/18/18 20/20/20 19/19/19
f 21/21/21 22/22/22 24/24/24 23/23/23

