# Exported from ProBuilder
# http://www.procore3d.com/probuilder
# 6/3/2018 12:32:48 PM

mtllib ./Table.mtl
o Table

g Table
v 0 0.01 -1.5
v -1 0.01 -1.5
v 0 0.71 -1.5
v -1 0.71 -1.5
v -1 0.01 -1.5
v -1 0.01 -2.5
v -1 0.71 -1.5
v -1 0.71 -2.5
v -1 0.01 -2.5
v 0 0.01 -2.5
v -1 0.71 -2.5
v 0 0.71 -2.5
v 0 0.01 -2.5
v 0 0.01 -1.5
v 0 0.71 -2.5
v 0 0.71 -1.5
v 0 0.71 -1.5
v -1 0.71 -1.5
v 0 0.71 -2.5
v -1 0.71 -2.5
v 0 0.01 -2.5
v -1 0.01 -2.5
v 0 0.01 -1.5
v -1 0.01 -1.5

vn 0 0 1
vn 0 0 1
vn 0 0 1
vn 0 0 1
vn -1 0 0
vn -1 0 0
vn -1 0 0
vn -1 0 0
vn 0 0 -1
vn 0 0 -1
vn 0 0 -1
vn 0 0 -1
vn 1 0 0
vn 1 0 0
vn 1 0 0
vn 1 0 0
vn 0 1 0
vn 0 1 0
vn 0 1 0
vn 0 1 0
vn 0 -1 0
vn 0 -1 0
vn 0 -1 0
vn 0 -1 0

vt 0 0
vt -1 0
vt 0 0.7
vt -1 0.7
vt 0 0
vt -1 0
vt 0 0.7
vt -1 0.7
vt 1 0
vt 0 0
vt 1 0.7
vt 0 0.7
vt 1 0
vt 0 0
vt 1 0.7
vt 0 0.7
vt 0 0
vt 1 0
vt 0 -1
vt 1 -1
vt 0 -1
vt -1 -1
vt 0 0
vt -1 0

g Table
usemtl Default_Prototype
f 3/3/3 4/4/4 2/2/2 1/1/1
f 7/7/7 8/8/8 6/6/6 5/5/5
f 11/11/11 12/12/12 10/10/10 9/9/9
f 15/15/15 16/16/16 14/14/14 13/13/13
f 19/19/19 20/20/20 18/18/18 17/17/17
f 23/23/23 24/24/24 22/22/22 21/21/21

